<svg width="12" height="12" viewBox="0 0 8 8" fill="none" xmlns="http://www.w3.org/2000/svg">
<path d="M6.33073 2.99935C6.33073 3.48268 6.1874 3.92602 5.94073 4.29602C5.58073 4.82935 5.01073 5.20602 4.3474 5.30268C4.23406 5.32268 4.1174 5.33268 3.9974 5.33268C3.8774 5.33268 3.76073 5.32268 3.6474 5.30268C2.98406 5.20602 2.41406 4.82935 2.05406 4.29602C1.8074 3.92602 1.66406 3.48268 1.66406 2.99935C1.66406 1.70935 2.7074 0.666016 3.9974 0.666016C5.2874 0.666016 6.33073 1.70935 6.33073 2.99935Z" stroke="white" stroke-width="0.5" stroke-linecap="round" stroke-linejoin="round"/>
<path d="M7.08369 6.15745L6.53369 6.28744C6.41035 6.31744 6.31369 6.41079 6.28702 6.53412L6.17035 7.02412C6.10702 7.29079 5.76702 7.37079 5.59035 7.16079L4.00035 5.33412L2.41035 7.16411C2.23369 7.37411 1.89369 7.29411 1.83035 7.02745L1.71369 6.53744C1.68369 6.41411 1.58702 6.31745 1.46702 6.29078L0.917018 6.16079C0.663685 6.10079 0.573685 5.78411 0.757018 5.60078L2.05702 4.30078C2.41702 4.83411 2.98702 5.21079 3.65035 5.30745C3.76369 5.32745 3.88035 5.33745 4.00035 5.33745C4.12035 5.33745 4.23702 5.32745 4.35035 5.30745C5.01369 5.21079 5.58369 4.83411 5.94369 4.30078L7.24369 5.60078C7.42702 5.78078 7.33702 6.09745 7.08369 6.15745Z" stroke="white" stroke-width="0.5" stroke-linecap="round" stroke-linejoin="round"/>
<path d="M4.19658 1.99398L4.39325 2.38732C4.41991 2.44065 4.48991 2.49398 4.55325 2.50398L4.90991 2.56398C5.13658 2.60065 5.18991 2.76732 5.02658 2.93065L4.74991 3.20731C4.70325 3.25398 4.67658 3.34398 4.69325 3.41065L4.77325 3.75398C4.83658 4.02398 4.69325 4.13064 4.45325 3.98731L4.11991 3.79065C4.05991 3.75398 3.95991 3.75398 3.89991 3.79065L3.56658 3.98731C3.32658 4.12731 3.18325 4.02398 3.24658 3.75398L3.32658 3.41065C3.33991 3.34732 3.31658 3.25398 3.26991 3.20731L2.99325 2.93065C2.82991 2.76732 2.88325 2.60398 3.10991 2.56398L3.46658 2.50398C3.52658 2.49398 3.59658 2.44065 3.62325 2.38732L3.81991 1.99398C3.91658 1.78065 4.08991 1.78065 4.19658 1.99398Z" stroke="white" stroke-width="0.5" stroke-linecap="round" stroke-linejoin="round"/>
</svg>
