<svg width="110" height="18" viewBox="0 0 110 18" fill="none" xmlns="http://www.w3.org/2000/svg">
<g clip-path="url(#clip0_1169_4214)">
<path d="M9.85118 15.1759C9.56798 15.0043 9.21287 15.0044 8.92968 15.176L4.58642 17.8085C3.91322 18.2165 3.081 17.6128 3.25989 16.8462L4.41136 11.9116C4.48616 11.591 4.37769 11.2553 4.12945 11.0392L0.306404 7.70986C-0.285781 7.19416 0.032568 6.22009 0.815012 6.15364L5.85322 5.7258C6.18131 5.69794 6.46712 5.49103 6.59603 5.18805L8.57327 0.540942C8.88015 -0.180315 9.90246 -0.180314 10.2093 0.540943L12.1866 5.18805C12.3155 5.49103 12.6013 5.69794 12.9294 5.7258L17.9676 6.15364C18.75 6.22009 19.0684 7.19416 18.4762 7.70986L14.6532 11.0392C14.4049 11.2553 14.2964 11.591 14.3713 11.9116L15.5228 16.8465C15.7017 17.6131 14.8696 18.2168 14.1964 17.8089L9.85118 15.1759Z" fill="#FFC500"/>
</g>
<g clip-path="url(#clip1_1169_4214)">
<path d="M32.6339 15.1759C32.3507 15.0043 31.9956 15.0044 31.7124 15.176L27.3691 17.8085C26.6959 18.2165 25.8637 17.6128 26.0426 16.8462L27.1941 11.9116C27.2689 11.591 27.1604 11.2553 26.9122 11.0392L23.0891 7.70986C22.4969 7.19416 22.8153 6.22009 23.5977 6.15364L28.6359 5.7258C28.964 5.69794 29.2498 5.49103 29.3787 5.18805L31.356 0.540942C31.6629 -0.180315 32.6852 -0.180314 32.992 0.540943L34.9693 5.18805C35.0982 5.49103 35.384 5.69794 35.7121 5.7258L40.7503 6.15364C41.5328 6.22009 41.8511 7.19416 41.2589 7.70986L37.4359 11.0392C37.1876 11.2553 37.0792 11.591 37.154 11.9116L38.3055 16.8465C38.4844 17.6131 37.6523 18.2168 36.9791 17.8089L32.6339 15.1759Z" fill="#FFC500"/>
</g>
<g clip-path="url(#clip2_1169_4214)">
<path d="M55.4164 15.1759C55.1332 15.0043 54.7781 15.0044 54.4949 15.176L50.1516 17.8085C49.4784 18.2165 48.6462 17.6128 48.8251 16.8462L49.9765 11.9116C50.0513 11.591 49.9429 11.2553 49.6946 11.0392L45.8716 7.70986C45.2794 7.19416 45.5978 6.22009 46.3802 6.15364L51.4184 5.7258C51.7465 5.69794 52.0323 5.49103 52.1612 5.18805L54.1385 0.540942C54.4453 -0.180315 55.4676 -0.180314 55.7745 0.540943L57.7518 5.18805C57.8807 5.49103 58.1665 5.69794 58.4946 5.7258L63.5328 6.15364C64.3152 6.22009 64.6336 7.19416 64.0414 7.70986L60.2183 11.0392C59.9701 11.2553 59.8616 11.591 59.9364 11.9116L61.088 16.8465C61.2669 17.6131 60.4347 18.2168 59.7615 17.8089L55.4164 15.1759Z" fill="#FFC500"/>
</g>
<g clip-path="url(#clip3_1169_4214)">
<path d="M78.1991 15.1759C77.9159 15.0043 77.5608 15.0044 77.2776 15.176L72.9343 17.8085C72.2611 18.2165 71.4289 17.6128 71.6078 16.8462L72.7593 11.9116C72.8341 11.591 72.7256 11.2553 72.4773 11.0392L68.6543 7.70986C68.0621 7.19416 68.3805 6.22009 69.1629 6.15364L74.2011 5.7258C74.5292 5.69794 74.815 5.49103 74.9439 5.18805L76.9212 0.540942C77.2281 -0.180315 78.2504 -0.180314 78.5572 0.540943L80.5345 5.18805C80.6634 5.49103 80.9492 5.69794 81.2773 5.7258L86.3155 6.15364C87.0979 6.22009 87.4163 7.19416 86.8241 7.70986L83.0011 11.0392C82.7528 11.2553 82.6444 11.591 82.7192 11.9116L83.8707 16.8465C84.0496 17.6131 83.2175 18.2168 82.5443 17.8089L78.1991 15.1759Z" fill="#FFC500"/>
</g>
<g clip-path="url(#clip4_1169_4214)">
<path d="M100.982 14.8273C100.698 14.6557 100.343 14.6557 100.06 14.8274L95.7168 17.4598C95.0436 17.8679 94.2114 17.2642 94.3903 16.4976L95.5417 11.563C95.6165 11.2424 95.5081 10.9067 95.2598 10.6905L91.4368 7.36123C90.8446 6.84553 91.1629 5.87145 91.9454 5.80501L96.9836 5.37717C97.3117 5.34931 97.5975 5.14239 97.7264 4.83941L99.7036 0.192309C100.011 -0.528947 101.033 -0.528946 101.34 0.19231L103.317 4.83942C103.446 5.1424 103.732 5.34931 104.06 5.37717L109.098 5.80501C109.88 5.87145 110.199 6.84553 109.607 7.36123L105.784 10.6905C105.535 10.9067 105.427 11.2424 105.502 11.563L106.653 16.4979C106.832 17.2645 106 17.8682 105.327 17.4602L100.982 14.8273Z" fill="#E0E8F1"/>
</g>
<defs>
<clipPath id="clip0_1169_4214">
<rect width="18.7826" height="18" fill="white"/>
</clipPath>
<clipPath id="clip1_1169_4214">
<rect width="18.7826" height="18" fill="white" transform="translate(22.7827)"/>
</clipPath>
<clipPath id="clip2_1169_4214">
<rect width="18.7826" height="18" fill="white" transform="translate(45.5652)"/>
</clipPath>
<clipPath id="clip3_1169_4214">
<rect width="18.7826" height="18" fill="white" transform="translate(68.3479)"/>
</clipPath>
<clipPath id="clip4_1169_4214">
<rect width="18.7826" height="18" fill="white" transform="translate(91.1304)"/>
</clipPath>
</defs>
</svg>
