<svg width="440" height="440" viewBox="0 0 440 440" fill="none" xmlns="http://www.w3.org/2000/svg">
<circle cx="220" cy="220" r="220" fill="#DFF6E4"/>
<path d="M312.674 192.186C314.982 193.043 317.505 193.101 319.905 192.55C329.959 190.242 364.532 184.131 358.524 210.922C357.216 216.237 336.967 246.004 365.803 256.871C367.916 257.677 370.151 258.117 372.412 258.172C381.29 258.355 398.884 256.259 406.247 248.763C415.142 239.709 405.424 244.003 405.424 244.003C405.424 244.003 371.608 258.76 359.663 243.103C358.334 241.361 357.488 238.831 357.245 236.653C356.825 232.877 358.502 227.886 360.704 223.542C363.686 217.663 377.999 191.214 346.923 183.509C339.764 181.804 329.367 180.273 315.96 185.917C308.14 189.21 309.873 191.145 312.674 192.186Z" fill="#9CE2AC"/>
<path d="M319.595 182.313L310.595 185.682C307.488 186.844 305.911 190.306 307.074 193.413L307.52 194.605C308.683 197.712 312.145 199.288 315.252 198.125L324.253 194.757C327.36 193.594 328.936 190.132 327.773 187.025L327.327 185.833C326.164 182.726 322.702 181.15 319.595 182.313Z" fill="#2FA048"/>
<path d="M264.352 192.06L234.668 203.17C233.115 203.751 232.327 205.482 232.908 207.036L233.025 207.348C233.607 208.901 235.337 209.69 236.891 209.108L266.575 197.999C268.128 197.417 268.916 195.686 268.335 194.133L268.218 193.82C267.637 192.267 265.906 191.479 264.352 192.06Z" fill="white"/>
<path d="M272.626 214.195L242.942 225.305C241.388 225.886 240.6 227.617 241.182 229.17L241.299 229.483C241.88 231.036 243.611 231.824 245.164 231.243L274.848 220.133C276.402 219.552 277.19 217.821 276.609 216.268L276.492 215.955C275.91 214.402 274.179 213.614 272.626 214.195Z" fill="white"/>
<path d="M300.024 176.955L275.966 185.959C272.859 187.122 271.283 190.583 272.445 193.69L280.659 215.637C281.822 218.744 285.284 220.32 288.391 219.157L312.449 210.153C315.556 208.99 317.132 205.529 315.969 202.422L307.755 180.475C306.593 177.368 303.131 175.792 300.024 176.955Z" fill="#2FA048"/>
<path d="M278.469 182.711L254.411 191.715C251.304 192.878 249.728 196.339 250.891 199.446L260.69 225.63C261.853 228.737 265.315 230.313 268.422 229.15L292.48 220.146C295.587 218.983 297.163 215.522 296 212.414L286.201 186.231C285.038 183.124 281.576 181.548 278.469 182.711Z" fill="#2FA048"/>
<path d="M282.22 177.399L282.032 177.469C279.96 178.245 278.91 180.552 279.685 182.624L293.413 219.304C294.188 221.375 296.496 222.426 298.567 221.651L298.756 221.58C300.827 220.805 301.878 218.497 301.103 216.426L287.375 179.746C286.599 177.674 284.292 176.624 282.22 177.399Z" fill="#2FA048"/>
<path d="M36.9091 200.85C36.9091 200.85 85.2264 187.272 78.2115 218.555C76.9933 223.505 59.4573 248.993 80.3453 261.23C84.8305 263.857 90.0065 265.021 95.2043 264.994C104.524 264.946 119.298 263.152 125.935 256.396C134.83 247.341 125.112 251.635 125.112 251.635C125.112 251.635 97.3627 263.05 83.0867 253.951C78.2121 250.844 76.0025 244.829 77.3263 239.202C78.0029 236.407 79.0331 233.709 80.3922 231.175C83.497 225.36 97.6865 198.847 66.6107 191.142C59.4521 189.437 49.0547 187.906 35.6482 193.55C22.2418 199.195 36.9091 200.85 36.9091 200.85Z" fill="#9CE2AC"/>
<path d="M132.447 244.635L123.446 248.004C120.339 249.167 118.763 252.628 119.926 255.735L120.372 256.927C121.535 260.034 124.996 261.61 128.103 260.448L137.104 257.079C140.211 255.916 141.787 252.455 140.624 249.348L140.178 248.155C139.015 245.048 135.554 243.472 132.447 244.635Z" fill="#2FA048"/>
<path d="M147.653 229.826L134.313 234.818C131.206 235.981 129.63 239.443 130.793 242.55L137.225 259.736C138.388 262.843 141.85 264.419 144.957 263.256L158.296 258.264C161.403 257.101 162.979 253.64 161.816 250.533L155.384 233.346C154.221 230.239 150.76 228.663 147.653 229.826Z" fill="#2FA048"/>
<path d="M169.839 216.594L149.946 224.039C146.839 225.202 145.263 228.663 146.426 231.77L156.225 257.954C157.388 261.061 160.85 262.637 163.957 261.474L183.85 254.029C186.957 252.866 188.533 249.405 187.37 246.298L177.571 220.114C176.408 217.007 172.946 215.431 169.839 216.594Z" fill="#2FA048"/>
<path d="M174.064 211.17L173.876 211.241C171.804 212.016 170.753 214.324 171.529 216.395L185.257 253.075C186.032 255.147 188.34 256.197 190.411 255.422L190.6 255.352C192.671 254.576 193.722 252.269 192.947 250.197L179.218 213.517C178.443 211.446 176.136 210.395 174.064 211.17Z" fill="#2FA048"/>
<path d="M224.824 187.803C224.107 187.723 223.45 187.369 222.989 186.814C222.529 186.26 222.302 185.548 222.355 184.829L223.84 157.718C223.928 156.099 225.296 154.868 226.848 155.011L229.01 155.212C230.562 155.355 231.673 156.813 231.456 158.421L227.809 185.332C227.725 186.049 227.368 186.706 226.812 187.166C226.256 187.626 225.544 187.854 224.824 187.803V187.803Z" fill="#2FA048"/>
<path d="M212.048 190.139C211.825 190.205 211.591 190.226 211.361 190.201C211.13 190.176 210.906 190.106 210.702 189.995C210.498 189.883 210.318 189.733 210.173 189.552C210.027 189.371 209.918 189.164 209.853 188.941L204.552 172.076C204.398 171.597 204.44 171.075 204.67 170.627C204.9 170.179 205.298 169.84 205.777 169.684L207.15 169.27C207.385 169.202 207.632 169.182 207.875 169.214C208.119 169.246 208.353 169.327 208.563 169.454C208.773 169.581 208.954 169.749 209.096 169.95C209.237 170.15 209.336 170.378 209.385 170.618L213.314 187.897C213.423 188.361 213.354 188.85 213.119 189.265C212.885 189.681 212.502 189.993 212.048 190.139V190.139Z" fill="#2FA048"/>
<path d="M204.871 199.865C203.921 201.042 202.011 201.028 200.541 199.833L174.437 178.625C172.878 177.358 172.418 175.261 173.425 174.013L174.83 172.274C175.837 171.026 177.907 171.128 179.382 172.499L204.082 195.447C205.473 196.74 205.821 198.689 204.871 199.865Z" fill="#2FA048"/>
<path d="M216.968 254.642C217.64 254.902 218.186 255.412 218.489 256.066C218.793 256.72 218.831 257.466 218.595 258.147L210.236 283.98C209.737 285.523 208.101 286.362 206.637 285.828L204.596 285.083C203.132 284.548 202.429 282.853 203.051 281.355L213.45 256.268C213.714 255.596 214.227 255.052 214.883 254.749C215.538 254.446 216.285 254.408 216.968 254.642V254.642Z" fill="#2FA048"/>
<path d="M229.98 255.657C230.213 255.651 230.444 255.69 230.661 255.773C230.878 255.856 231.076 255.981 231.245 256.14C231.413 256.3 231.549 256.491 231.644 256.703C231.739 256.915 231.791 257.144 231.797 257.376L232.615 275.035C232.641 275.538 232.467 276.031 232.131 276.406C231.794 276.781 231.322 277.007 230.819 277.035L229.387 277.085C229.141 277.091 228.897 277.047 228.67 276.954C228.443 276.861 228.238 276.722 228.067 276.546C227.896 276.37 227.764 276.161 227.678 275.931C227.593 275.701 227.555 275.456 227.569 275.211L228.185 257.502C228.197 257.025 228.389 256.57 228.722 256.228C229.055 255.887 229.504 255.683 229.98 255.657V255.657Z" fill="#2FA048"/>
<path d="M239.348 248.082C240.567 247.187 242.41 247.688 243.527 249.219L263.349 276.39C264.533 278.013 264.442 280.157 263.149 281.107L261.346 282.43C260.054 283.379 258.079 282.752 257.003 281.05L238.982 252.554C237.969 250.95 238.13 248.977 239.348 248.082Z" fill="#2FA048"/>
</svg>
