<svg width="347" height="64" viewBox="0 0 347 64" fill="none" xmlns="http://www.w3.org/2000/svg">
<g clip-path="url(#clip0_573_9894)">
<path d="M28.3781 37.1143V35.9914C31.9494 35.8396 32.6121 35.3034 32.6121 31.5095V4.3505L20.0519 37.1143H19.2223L5.11919 3.45515V28.4744C5.11919 34.2057 5.57951 35.531 10.1777 35.9914V37.0334H0V35.9914C3.3386 35.531 3.92539 34.1551 3.92539 29.1118V5.62524C3.92539 1.82631 3.31331 1.29011 0 1.13836V0.177246H12.7879L23.3095 25.4697L32.9207 0.177246H44.8385V1.13836C41.4999 1.29011 40.9131 1.82631 40.9131 5.62524V31.5095C40.9131 35.3034 41.5251 35.8396 44.8385 35.9914V37.1143H28.3781Z" fill="white"/>
<path d="M306.211 3.43495C306.491 3.68719 306.846 3.84161 307.222 3.87504C307.946 3.87504 308.345 2.94428 308.548 0.885473H309.726C309.574 3.45519 309.524 6.91014 309.524 13.0258H308.315C307.763 8.41757 307.111 5.99455 304.455 3.92057C302.687 2.30104 300.368 1.41646 297.97 1.44697C290.605 1.44697 287.752 9.84912 287.752 18.7167C287.752 27.7056 290.833 35.8599 298.168 35.8599C300.527 35.8889 302.81 35.0231 304.556 33.4369C307.212 31.4135 307.834 28.6364 308.315 23.7397H309.514C309.514 30.1084 309.564 33.705 309.716 36.386H308.537C308.335 34.3272 308.032 33.4217 307.288 33.4217C306.897 33.4591 306.524 33.6044 306.211 33.8415C303.681 35.5766 301.152 37.0992 296.741 37.0992C285.87 37.0992 278.637 30.4119 278.637 18.924C278.637 7.70432 286.123 0.162109 296.792 0.162109C301.299 0.177285 303.954 1.74036 306.211 3.43495Z" fill="white"/>
<path d="M196.669 37.1143L174.042 8.42764V28.4491C174.042 34.1804 174.502 35.5057 179.101 35.9661V37.1143H168.923V35.9661C172.261 35.5057 172.848 34.1298 172.848 29.0865V5.59995C172.848 1.80102 172.236 1.26482 168.923 1.11307V0.177246H177.967L198.146 24.9638V8.62998C198.146 2.89871 197.685 1.57339 193.087 1.11307V0.177246H203.275V1.11307C199.936 1.57339 199.355 2.9493 199.355 7.99261V37.1143H196.669Z" fill="white"/>
<path d="M246.303 37.114V36.0669C249.611 35.9152 250.198 35.379 250.198 31.5851V5.7008C250.198 1.90188 249.586 1.37074 246.303 1.21392V0.171875C251.983 0.32363 259.804 0.171875 263.294 0.171875H274.195C273.942 3.2525 273.841 6.38876 273.841 7.89113C273.829 9.0733 273.88 10.2553 273.993 11.4321H272.794C271.752 3.7887 269.025 1.37074 264.235 1.37074H262.095C259.06 1.37074 258.504 1.826 258.504 5.08873V18.0031H260.183C264.362 18.0031 265.844 13.9563 266.4 11.1235H267.594C267.442 13.3442 267.417 14.8466 267.417 16.0404C267.417 17.0116 267.442 17.7754 267.442 18.5393C267.442 20.244 267.493 21.979 267.746 25.955H266.582C266.046 22.2825 264.387 19.0502 260.209 19.0502H258.489V32.2022C258.489 35.4599 259.05 35.9202 262.08 35.9202H264.655C269.314 35.9202 272.526 33.219 273.826 24.7915H275.025C274.919 25.9145 274.868 27.4675 274.868 29.1722C274.868 30.7252 274.919 33.9626 275.227 37.0989L246.303 37.114Z" fill="white"/>
<path d="M320.638 37.1142V36.0671C325.276 36.0165 326.202 35.4044 326.202 31.1502V1.37091H325.059C320.142 1.37091 317.441 4.19861 315.655 13.0054H314.456C314.562 12.0393 314.613 10.5875 314.613 9.02947C314.613 7.29946 314.507 3.70793 314.254 0.166992H346.456C346.178 3.70793 346.077 7.29946 346.077 9.02947C346.077 10.5875 346.127 12.0393 346.229 13.0054H345.03C343.274 4.21884 340.523 1.37091 335.656 1.37091H334.508V31.1502C334.508 35.4044 335.449 36.0165 340.072 36.0671V37.1142H320.638Z" fill="white"/>
<path d="M77.2736 37.1143V35.9914C80.8399 35.8396 81.5025 35.3034 81.5025 31.5095V4.3505L68.9423 37.1143H68.1026L54.0147 3.45515V28.4744C54.0147 34.2057 54.47 35.531 59.0732 35.9914V37.0334H48.8955V35.9914C52.2291 35.531 52.8158 34.1551 52.8158 29.1118V5.62524C52.8158 1.82631 52.2038 1.29011 48.8955 1.13836V0.177246H61.6834L72.205 25.4697L81.8162 0.177246H93.734V1.13836C90.3954 1.29011 89.8086 1.82631 89.8086 5.62524V31.5095C89.8086 35.3034 90.4207 35.8396 93.734 35.9914V37.1143H77.2736Z" fill="white"/>
<path d="M235.756 37.1143L213.129 8.42764V28.4491C213.129 34.1804 213.589 35.5057 218.187 35.9661V37.1143H208.01V35.9661C211.348 35.5057 211.935 34.1298 211.935 29.0865V5.59995C211.935 1.80102 211.323 1.26482 208.01 1.11307V0.177246H217.054L237.233 24.9638V8.62998C237.233 2.89871 236.772 1.57339 232.174 1.11307V0.177246H242.352V1.11307C239.013 1.57339 238.426 2.9493 238.426 7.99261V37.1143H235.756Z" fill="white"/>
<path d="M162.984 18.241C163.434 34.5799 146.418 41.7933 134.505 33.9223C135.767 32.4645 136.817 30.8366 137.626 29.0864C139.356 33.5278 142.224 36.0823 145.482 36.0823C157.936 36.5325 157.435 0.258078 145.113 1.02191C137.692 1.52776 135.942 11.4879 135.891 18.6609C135.633 29.4961 128.581 36.9928 118.186 36.9878C107.563 36.9878 100.82 30.3106 100.512 18.848C100.082 2.73674 117.078 -4.7043 128.991 3.16671C127.731 4.62539 126.68 6.25311 125.87 8.00262C119.385 -6.38877 108.165 3.11107 108.823 18.6254C108.823 29.2837 113.102 36.057 118.384 36.057C125.86 35.5511 127.55 25.505 127.605 18.2966C127.474 -5.61483 162.306 -6.33819 162.984 18.241Z" fill="#E66B5B"/>
<path d="M144.086 62.2197L139.71 50.9292H138.461L134.358 61.4812C133.852 62.8065 133.316 63.277 132.79 63.3731V63.7373H136.417V63.3781C135.431 63.3781 134.813 63.105 134.813 62.154C134.861 61.4549 135.032 60.7699 135.319 60.1306L135.825 58.8811H139.745L140.833 61.8404C140.95 62.1114 141.021 62.4005 141.04 62.6952C141.04 63.2011 140.636 63.3174 139.771 63.3528V63.7373H145.259V63.3781C144.88 63.3427 144.419 63.0645 144.086 62.2197ZM135.926 58.5422L137.788 53.6861L139.579 58.5422H135.926Z" fill="#E66B5B"/>
<path d="M158.942 50.9136C158.851 52.0113 158.816 53.1241 158.816 53.6603C158.816 54.1965 158.816 54.7024 158.872 55.0362H158.457C157.981 52.2288 157.035 51.3284 155.346 51.3284H154.749C153.697 51.3284 153.499 51.4902 153.499 52.6183V57.1709H154.137C155.583 57.1709 156.099 55.7545 156.282 54.7783H156.706C156.656 55.5724 156.636 56.1086 156.636 56.5336C156.636 56.8421 156.636 57.1001 156.636 57.348C156.636 57.9449 156.636 58.5367 156.752 59.9177H156.337C156.14 58.6531 155.573 57.5301 154.127 57.5301H153.489V61.7134C153.489 63.1248 153.818 63.317 155.427 63.3372V63.7368H149.271V63.3777C150.419 63.322 150.621 63.1399 150.621 61.8247V52.8307C150.621 51.5155 150.414 51.3132 149.271 51.2778V50.9136H158.942Z" fill="#E66B5B"/>
<path d="M175.024 62.7255C174.945 62.8492 174.836 62.9517 174.709 63.024C174.581 63.0963 174.437 63.1362 174.29 63.1403C173.835 63.1403 173.633 62.8064 173.425 61.8402L173.021 59.9736C172.702 58.4561 171.736 57.7631 169.54 57.5759C172.707 57.2066 173.587 55.5525 173.587 54.0704C173.587 52.0773 171.938 50.9189 168.564 50.9189H162.949V51.2579C164.097 51.3135 164.305 51.5007 164.305 52.8209V61.8099C164.305 63.1301 164.103 63.3274 162.949 63.3679V63.7372H168.564V63.3729C167.411 63.3173 167.193 63.1352 167.193 61.8149V57.667H168.372C169.51 57.667 169.798 58.7343 170.067 60.2468L170.385 62.0577C170.663 63.5753 171.539 64.0255 172.844 64.0255C173.3 64.0532 173.757 63.9718 174.175 63.7879C174.594 63.6041 174.963 63.3231 175.251 62.9683L175.024 62.7255ZM167.993 57.2825H167.234V52.8209C167.234 51.5715 167.431 51.2579 168.362 51.2579C170.011 51.2579 170.613 52.3657 170.613 54.293C170.613 55.9319 170.163 57.2775 168.013 57.2775L167.993 57.2825Z" fill="#E66B5B"/>
<path d="M179.576 63.7368V63.3777C180.724 63.322 180.927 63.1399 180.927 61.8247V52.8307C180.927 51.5155 180.719 51.3132 179.576 51.2778V50.9136H185.166V51.2778C184.012 51.3284 183.81 51.5155 183.81 52.8307V61.8045C183.81 63.1197 184.018 63.322 185.166 63.3575V63.7368H179.576Z" fill="#E66B5B"/>
<path d="M199.396 52.0417C199.488 52.1305 199.607 52.1857 199.735 52.1985C199.982 52.1985 200.119 51.8748 200.185 51.1868H200.584C200.534 52.0771 200.519 53.276 200.519 55.3955H200.109C199.922 53.8021 199.699 52.9624 198.804 52.2491C198.209 51.6884 197.42 51.3802 196.603 51.3892C194.104 51.3892 193.138 54.3029 193.138 57.3734C193.138 60.4439 194.18 63.3171 196.679 63.3171C197.482 63.3256 198.257 63.0249 198.844 62.4774C199.745 61.7844 199.957 60.8131 200.119 59.1185H200.529C200.529 61.324 200.529 62.5735 200.594 63.4992H200.195C200.129 62.786 200.018 62.4875 199.77 62.4875C199.638 62.5014 199.512 62.5503 199.406 62.6291C198.499 63.3639 197.366 63.7624 196.199 63.7572C192.511 63.7572 190.058 61.4404 190.058 57.4594C190.058 53.5694 192.587 50.9541 196.214 50.9541C197.37 50.9253 198.499 51.3111 199.396 52.0417Z" fill="#E66B5B"/>
<path d="M216.757 62.2197L212.381 50.9292H211.127L207.024 61.4812C206.518 62.8065 205.987 63.277 205.456 63.3731V63.7373H209.088V63.3781C208.102 63.3781 207.485 63.105 207.485 62.154C207.528 61.4542 207.699 60.7684 207.99 60.1306L208.496 58.8811H212.411L213.494 61.8404C213.615 62.1105 213.687 62.4 213.706 62.6952C213.706 63.2011 213.297 63.3174 212.437 63.3528V63.7373H217.92V63.3781C217.551 63.3427 217.091 63.0645 216.757 62.2197ZM208.592 58.5422L210.464 53.6861L212.25 58.5422H208.592Z" fill="#E66B5B"/>
</g>
<defs>
<clipPath id="clip0_573_9894">
<rect width="346.471" height="64" fill="white"/>
</clipPath>
</defs>
</svg>
