<svg width="64" height="56" viewBox="0 0 64 56" fill="none" xmlns="http://www.w3.org/2000/svg">
<mask id="mask0_330_2661" style="mask-type:luminance" maskUnits="userSpaceOnUse" x="0" y="0" width="64" height="56">
<path d="M0 0H64V56H0V0Z" fill="white"/>
</mask>
<g mask="url(#mask0_330_2661)">
<path d="M37.0748 19.8429C36.4691 19.8429 35.9602 19.6872 35.5474 19.3751C35.1345 19.0634 34.9282 18.6022 34.9282 17.9916C34.9282 17.4079 35.1274 16.9435 35.5267 16.5984C35.9257 16.2533 36.421 16.0808 37.0129 16.0808C37.3019 16.0808 37.5837 16.1174 37.8591 16.1902C38.1342 16.2634 38.3784 16.3763 38.5919 16.5286C38.8051 16.6813 38.977 16.8738 39.108 17.1059C39.2385 17.3382 39.304 17.6135 39.304 17.9319C39.304 18.224 39.2421 18.4893 39.1182 18.7282C38.9944 18.9671 38.8293 19.1695 38.6228 19.3353C38.4165 19.5015 38.1791 19.6273 37.9107 19.7135C37.6425 19.8 37.3638 19.8429 37.0748 19.8429ZM37.0129 21.0372C37.6734 21.0372 38.1997 21.1666 38.5919 21.4254C38.9841 21.6841 39.2867 22.016 39.5001 22.4207C39.7134 22.8256 39.851 23.2835 39.9129 23.7941C39.9749 24.3052 40.0058 24.8193 40.0058 25.3368V26.3122C40.0058 26.7103 39.992 27.1352 39.9646 27.5862C39.9368 28.0375 39.882 28.4887 39.7995 28.9397C39.7168 29.3909 39.593 29.7991 39.428 30.1639C39.2628 30.5291 39.0493 30.8243 38.788 31.0497C38.5265 31.2755 38.1962 31.3882 37.7973 31.3882C37.0955 31.3882 36.531 31.219 36.1047 30.8806C35.678 30.5421 35.3514 30.1176 35.1242 29.6065C34.8972 29.0959 34.7456 28.5385 34.6701 27.9345C34.5944 27.3308 34.5566 26.77 34.5566 26.2525C34.5566 25.8678 34.5634 25.4 34.5773 24.8491C34.5908 24.2987 34.6563 23.7578 34.7734 23.2268C34.8901 22.6962 35.0829 22.2284 35.3514 21.8236C35.6196 21.4189 36.0083 21.17 36.5175 21.077C36.6 21.0639 36.6827 21.054 36.7652 21.0472C36.8479 21.0405 36.9303 21.0372 37.0129 21.0372Z" fill="#2FA048"/>
<path d="M49.1089 16.7976L49.2947 16.7777C49.4597 16.7777 49.6384 16.801 49.8313 16.8473C50.0237 16.894 50.206 16.9637 50.3783 17.0564C50.5501 17.1494 50.691 17.2653 50.8013 17.4048C50.9113 17.544 50.9665 17.7068 50.9665 17.8925C50.9665 18.1447 50.87 18.4 50.6775 18.6588C50.4846 18.9175 50.2441 19.1763 49.9551 19.4351C49.6661 19.6939 49.3529 19.9561 49.0159 20.2213C48.6786 20.487 48.3656 20.7523 48.0768 21.0177C47.7878 21.2832 47.5469 21.5551 47.3544 21.8337C47.1614 22.1124 47.0654 22.3979 47.0654 22.6897C47.0654 22.8888 47.1272 23.0648 47.2512 23.2171C47.375 23.3699 47.5263 23.5027 47.7053 23.6153C47.8839 23.7282 48.0732 23.8243 48.2729 23.9039C48.4721 23.9836 48.6476 24.0567 48.7991 24.1229C49.3082 24.3088 49.8174 24.5408 50.3266 24.8195C50.8355 25.0984 51.2968 25.4267 51.7095 25.8049C52.1224 26.1831 52.4558 26.6111 52.7107 27.0887C52.9652 27.5665 53.0926 28.0974 53.0926 28.6812C53.0926 29.0265 53.0339 29.368 52.917 29.7063C52.8 30.0448 52.6313 30.3468 52.4114 30.6121C52.1911 30.8777 51.9264 31.0933 51.6167 31.259C51.3071 31.4248 50.9593 31.5078 50.5743 31.5078C50.0237 31.5078 49.549 31.3719 49.1501 31.0998C48.7509 30.828 48.4034 30.4895 48.1077 30.0846C47.8117 29.68 47.5572 29.2355 47.3439 28.751C47.1305 28.2667 46.9447 27.8122 46.7867 27.3874C46.6283 26.9629 46.4838 26.5945 46.3532 26.2826C46.2224 25.971 46.0813 25.7884 45.9301 25.7352C45.765 25.8018 45.6582 25.9078 45.6102 26.0537C45.5618 26.1999 45.5379 26.3458 45.5379 26.4916C45.5379 26.9962 45.6102 27.4968 45.7546 27.9945C45.8992 28.4921 45.9713 28.9933 45.9713 29.4974C45.9713 29.9884 45.83 30.423 45.5483 30.8012C45.266 31.1793 44.843 31.3686 44.2788 31.3686C43.6045 31.3686 43.0471 31.2426 42.6068 30.9902C42.1663 30.7384 41.8189 30.4099 41.5646 30.0049C41.3097 29.6003 41.1311 29.136 41.0279 28.6116C40.9247 28.0875 40.873 27.5535 40.873 27.0092C40.873 26.4786 40.9006 25.9541 40.9556 25.4366C41.0104 24.9192 41.0724 24.3984 41.1415 23.874C41.2101 23.3501 41.272 22.8289 41.3272 22.3115C41.3819 21.794 41.4098 21.2699 41.4098 20.7389C41.4098 20.4602 41.3959 20.1815 41.3685 19.9029C41.3407 19.6242 41.3272 19.3455 41.3272 19.0668C41.3272 18.4433 41.4578 17.9191 41.7194 17.4944C41.9805 17.0698 42.4692 16.8573 43.1849 16.8573C43.6251 16.8573 44.0173 16.9667 44.3614 17.1858C44.7052 17.4048 44.8774 17.753 44.8774 18.2308C44.8774 18.4299 44.8464 18.6224 44.7845 18.8081C44.7226 18.994 44.6536 19.1797 44.5781 19.3655C44.5024 19.5514 44.4337 19.7371 44.3717 19.9228C44.3098 20.1088 44.2788 20.2944 44.2788 20.4801C44.2788 20.5865 44.3026 20.6961 44.3511 20.8086C44.3992 20.9214 44.492 20.9778 44.6297 20.9778C44.7949 20.9778 44.9426 20.8817 45.0735 20.6891C45.2041 20.4969 45.3417 20.2547 45.4863 19.9626C45.6307 19.6709 45.796 19.3524 45.9817 19.0071C46.1675 18.6622 46.4013 18.3372 46.6834 18.0317C46.9654 17.7266 47.3028 17.458 47.695 17.2256C48.0871 16.9936 48.5582 16.8508 49.1089 16.7976Z" fill="#2FA048"/>
<path d="M59.8825 22.8088C59.5936 22.8088 59.3182 22.8984 59.057 23.0776C58.7954 23.2567 58.6647 23.4991 58.6647 23.8041C58.6647 24.043 58.7541 24.2688 58.9331 24.4808C59.1118 24.6933 59.3387 24.7995 59.6142 24.7995C59.9306 24.7995 60.1819 24.6867 60.3675 24.461C60.5533 24.2355 60.6462 23.9767 60.6462 23.6847C60.6462 23.4591 60.5808 23.2567 60.4502 23.0776C60.3193 22.8984 60.1303 22.8088 59.8825 22.8088ZM59.6555 28.661C59.958 28.661 60.2402 28.6081 60.5018 28.5018C60.763 28.3957 61.0075 28.2828 61.2346 28.1634C61.4616 28.044 61.6712 27.9314 61.864 27.825C62.0566 27.719 62.2217 27.6658 62.3594 27.6658C62.552 27.6658 62.6929 27.7355 62.7826 27.8748C62.872 28.0141 62.9168 28.1703 62.9168 28.3425C62.9168 28.5683 62.8549 28.7938 62.731 29.0193C62.5381 29.3777 62.277 29.703 61.9467 29.9947C61.6163 30.2868 61.2516 30.5356 60.8526 30.7412C60.4534 30.9471 60.0374 31.1064 59.6039 31.219C59.1704 31.3319 58.7472 31.3882 58.3346 31.3882C57.6462 31.3882 57.027 31.2522 56.4767 30.9801C55.9263 30.7082 55.455 30.3465 55.0628 29.8953C54.6706 29.4442 54.3714 28.9268 54.165 28.3425C53.9586 27.7588 53.8555 27.1551 53.8555 26.5312C53.8555 25.8811 53.9757 25.2343 54.2166 24.5903C54.4572 23.9469 54.7978 23.3696 55.2383 22.8585C55.6786 22.3479 56.2014 21.9329 56.8071 21.6145C57.4123 21.296 58.0797 21.1369 58.8092 21.1369C59.222 21.1369 59.6623 21.2033 60.1303 21.3358C60.5978 21.4685 61.0281 21.6577 61.4203 21.9031C61.8125 22.1488 62.1357 22.4539 62.3904 22.8187C62.6449 23.184 62.7723 23.5985 62.7723 24.0629C62.7723 24.448 62.7 24.8093 62.5555 25.1477C62.4112 25.4861 62.2182 25.7946 61.9777 26.0733C61.7367 26.352 61.4545 26.5977 61.1313 26.8099C60.8079 27.0222 60.4672 27.188 60.1096 27.3075C59.8756 27.3871 59.6452 27.4668 59.4182 27.5463C59.191 27.6259 58.9537 27.6658 58.706 27.6658H58.5409C58.4857 27.6658 58.4306 27.6527 58.3758 27.6259C58.4719 27.9314 58.6235 28.1801 58.8299 28.3724C59.0362 28.565 59.3114 28.661 59.6555 28.661Z" fill="#2FA048"/>
<path d="M37.0748 37.3844C36.4691 37.3844 35.9602 37.2287 35.5474 36.9166C35.1345 36.6049 34.9282 36.1437 34.9282 35.5331C34.9282 34.9494 35.1274 34.485 35.5267 34.1399C35.9257 33.7948 36.421 33.6223 37.0129 33.6223C37.3019 33.6223 37.5837 33.6589 37.8591 33.7317C38.1342 33.8049 38.3784 33.9178 38.5919 34.0701C38.8051 34.2228 38.977 34.4153 39.108 34.6474C39.2385 34.8797 39.304 35.155 39.304 35.4734C39.304 35.7655 39.2421 36.0308 39.1182 36.2697C38.9944 36.5086 38.8293 36.711 38.6228 36.8768C38.4165 37.043 38.1791 37.1688 37.9107 37.255C37.6425 37.3415 37.3638 37.3844 37.0748 37.3844ZM37.0129 38.5787C37.6734 38.5787 38.1997 38.7081 38.5919 38.9669C38.9841 39.2256 39.2867 39.5575 39.5001 39.9622C39.7134 40.3671 39.851 40.825 39.9129 41.3357C39.9749 41.8467 40.0058 42.3608 40.0058 42.8783V43.8537C40.0058 44.2518 39.992 44.6767 39.9646 45.1277C39.9368 45.579 39.882 46.0302 39.7995 46.4813C39.7168 46.9324 39.593 47.3406 39.428 47.7054C39.2628 48.0706 39.0493 48.3658 38.788 48.5912C38.5265 48.817 38.1962 48.9297 37.7973 48.9297C37.0955 48.9297 36.531 48.7605 36.1047 48.4221C35.678 48.0836 35.3514 47.6591 35.1242 47.148C34.8972 46.6374 34.7456 46.08 34.6701 45.476C34.5944 44.8723 34.5566 44.3116 34.5566 43.794C34.5566 43.4093 34.5634 42.9415 34.5773 42.3906C34.5908 41.8402 34.6563 41.2993 34.7734 40.7683C34.8901 40.2378 35.0829 39.7699 35.3514 39.3651C35.6196 38.9604 36.0083 38.7115 36.5175 38.6185C36.6 38.6054 36.6827 38.5955 36.7652 38.5887C36.8479 38.582 36.9303 38.5787 37.0129 38.5787Z" fill="#2FA048"/>
<path d="M47.665 42.1416C47.665 42.3541 47.7889 42.5398 48.0366 42.699C48.2842 42.8582 48.5938 43.0109 48.9654 43.1568C49.3368 43.303 49.7359 43.4622 50.1625 43.6344C50.5888 43.8071 50.9881 44.0128 51.3597 44.2517C51.7313 44.4904 52.0408 44.7859 52.2885 45.1374C52.5362 45.4891 52.6601 45.9171 52.6601 46.4213C52.6601 46.7797 52.5911 47.1149 52.4538 47.4265C52.316 47.7384 52.1235 48.0038 51.8758 48.2228C51.6281 48.4417 51.3423 48.6143 51.0191 48.7403C50.6957 48.8666 50.3483 48.9294 49.9768 48.9294C49.5913 48.9294 49.2508 48.8233 48.9551 48.611C48.659 48.3988 48.3943 48.1332 48.1603 47.8147C47.9263 47.4963 47.7198 47.1478 47.5412 46.7697C47.3621 46.3915 47.2006 46.0431 47.0562 45.7247C46.9116 45.4061 46.7774 45.1408 46.6535 44.9284C46.5297 44.7164 46.4059 44.6099 46.282 44.6099C46.1581 44.6099 46.086 44.6764 46.0653 44.809C46.0447 44.9418 46.0344 45.0478 46.0344 45.1275C46.0344 45.393 46.055 45.665 46.0963 45.9436C46.1376 46.2223 46.1581 46.4944 46.1581 46.7597C46.1581 47.118 46.0927 47.4598 45.9621 47.7849C45.8312 48.1102 45.6454 48.3988 45.4048 48.6507C45.1638 48.903 44.8817 49.1017 44.5585 49.2479C44.235 49.3938 43.8805 49.4668 43.4955 49.4668C43.0962 49.4668 42.7351 49.3938 42.4119 49.2479C42.0883 49.1017 41.8133 48.903 41.5862 48.6507C41.3591 48.3988 41.1837 48.1068 41.0598 47.7749C40.9361 47.4433 40.8741 47.0915 40.8741 46.7199C40.8741 46.2555 40.9186 45.7977 41.0083 45.3463C41.0977 44.8954 41.194 44.4441 41.2972 43.9928C41.4004 43.5418 41.4933 43.0905 41.576 42.6393C41.6585 42.1883 41.6999 41.7304 41.6999 41.2657C41.6999 40.8677 41.6549 40.4764 41.5656 40.0913C41.4759 39.7066 41.3799 39.322 41.2766 38.9368C41.1734 38.552 41.077 38.1673 40.9876 37.7823C40.898 37.3976 40.8535 37.006 40.8535 36.6077C40.8535 35.719 41.1322 35.0023 41.6894 34.4581C42.2468 33.9141 42.9929 33.6419 43.9289 33.6419C44.6721 33.6419 45.2361 33.8111 45.6216 34.1494C46.0066 34.488 46.1995 35.0222 46.1995 35.7519C46.1995 36.0838 46.1581 36.4123 46.0756 36.7372C45.9931 37.0626 45.9034 37.381 45.8074 37.6927C45.7109 38.0048 45.6216 38.3098 45.5389 38.6084C45.4565 38.907 45.4151 39.1956 45.4151 39.4743C45.4151 39.6602 45.4494 39.8524 45.5183 40.0516C45.8347 39.8923 46.0824 39.6867 46.2614 39.4345C46.4401 39.1825 46.6259 38.9337 46.8187 38.6879C47.0112 38.4426 47.2451 38.2301 47.5204 38.051C47.7956 37.8718 48.1739 37.7823 48.6557 37.7823C48.9035 37.7823 49.1579 37.8191 49.4195 37.8918C49.6808 37.9649 49.9217 38.0709 50.1419 38.2103C50.3619 38.3495 50.5443 38.5221 50.6889 38.7279C50.8333 38.9337 50.9057 39.1692 50.9057 39.4345C50.9057 39.753 50.8263 40.0217 50.6682 40.2406C50.5099 40.4596 50.3103 40.6456 50.0697 40.798C49.8287 40.9507 49.5671 41.0767 49.2853 41.1761C49.0031 41.2758 48.7415 41.3753 48.5009 41.4747C48.26 41.5743 48.0604 41.6739 47.9024 41.7733C47.744 41.8729 47.665 41.9957 47.665 42.1416Z" fill="#2FA048"/>
<path d="M58.9958 44.4907C58.9958 44.2254 58.8994 44.0263 58.7069 43.8936C58.514 43.7611 58.294 43.6944 58.0463 43.6944C57.7848 43.6944 57.568 43.7611 57.3962 43.8936C57.224 44.0263 57.1382 44.2254 57.1382 44.4907C57.1382 44.743 57.224 44.9685 57.3962 45.1675C57.568 45.3666 57.7916 45.4661 58.067 45.4661C58.3421 45.4661 58.5656 45.3634 58.7378 45.1576C58.9098 44.9519 58.9958 44.7296 58.9958 44.4907ZM53.4434 46.2026C53.4434 45.5127 53.5672 44.9386 53.8149 44.4808C54.0626 44.0229 54.3686 43.6417 54.7334 43.3362C55.0979 43.0311 55.4936 42.7788 55.9204 42.5798C56.3466 42.3807 56.7424 42.2083 57.1072 42.0623C57.4717 41.9163 57.7781 41.7735 58.0258 41.6343C58.2734 41.4949 58.3972 41.3192 58.3972 41.1068C58.3972 40.9609 58.3318 40.8549 58.2011 40.7883C58.0703 40.7221 57.936 40.6888 57.7987 40.6888C57.6058 40.6888 57.4133 40.7286 57.2207 40.8082C57.0278 40.8878 56.8317 40.9709 56.6324 41.057C56.4328 41.1435 56.2332 41.2263 56.0339 41.3058C55.8342 41.3854 55.6243 41.4252 55.4043 41.4252C55.2253 41.4252 55.0499 41.3924 54.878 41.3257C54.7058 41.2594 54.551 41.1699 54.4136 41.057C54.2758 40.9445 54.1658 40.8082 54.0833 40.649C54.0007 40.4897 53.9594 40.3239 53.9594 40.1513C53.9594 39.7267 54.0901 39.3585 54.3516 39.0465C54.6129 38.7349 54.9328 38.4793 55.3114 38.2802C55.6897 38.081 56.099 37.9318 56.5395 37.8323C56.9799 37.7328 57.3858 37.683 57.7573 37.683C58.8168 37.683 59.7112 37.8392 60.4406 38.1508C61.1699 38.4627 61.7582 38.9007 62.2055 39.4645C62.6526 40.0287 62.9725 40.6987 63.1652 41.475C63.3578 42.2513 63.4542 43.1107 63.4542 44.0528C63.4542 44.5175 63.4508 44.9784 63.444 45.4362C63.4368 45.8941 63.4818 46.3553 63.5781 46.8196C63.6055 46.9789 63.6468 47.1382 63.7019 47.2974C63.7568 47.4567 63.7846 47.6159 63.7846 47.7751C63.7846 47.9743 63.7227 48.1469 63.5987 48.2927C63.4749 48.4389 63.3233 48.5583 63.1446 48.651C62.9657 48.744 62.7731 48.8137 62.5667 48.86C62.3603 48.9066 62.1745 48.9297 62.0095 48.9297C61.4863 48.9297 61.1012 48.8401 60.8535 48.6609C60.6059 48.4818 60.4164 48.2897 60.2859 48.0836C60.155 47.8781 60.0485 47.6855 59.9659 47.5063C59.8834 47.3272 59.7458 47.2377 59.5531 47.2377C59.4705 47.2377 59.3467 47.3141 59.1816 47.4666C59.0165 47.6192 58.803 47.785 58.5417 47.9642C58.2802 48.1434 57.967 48.3095 57.6026 48.462C57.2377 48.6146 56.8079 48.6908 56.3126 48.6908C55.8997 48.6908 55.5211 48.6379 55.1772 48.5315C54.8331 48.4256 54.5302 48.2696 54.2691 48.0637C54.0075 47.8581 53.8046 47.5994 53.6602 47.2875C53.5156 46.9759 53.4434 46.614 53.4434 46.2026Z" fill="#2FA048"/>
<path d="M20.2831 25.8433C20.2831 26.4934 20.3728 27.1679 20.5551 27.8672C20.736 28.5677 21.0081 29.2422 21.3713 29.8912C21.7331 30.5413 22.1873 31.1163 22.7316 31.6152C23.2756 32.1154 23.8841 32.4901 24.5581 32.7396C25.6463 33.0899 26.7469 33.3393 27.8617 33.4893C28.9754 33.6392 29.9993 33.9015 30.9321 34.2763C31.8648 34.6511 32.6288 35.2884 33.2251 36.1879C33.8203 37.0874 34.1189 38.4871 34.1189 40.3856C34.1189 42.6345 33.7037 44.6714 32.8753 46.495C32.0457 48.32 30.8932 49.8811 29.4163 51.1801C27.9394 52.4802 26.2293 53.4792 24.286 54.1785C22.3429 54.8789 20.2308 55.228 17.9511 55.228C16.0334 55.228 14.1289 54.9539 12.2378 54.4034C10.3457 53.8541 8.64895 53.0541 7.14656 52.0047C5.64288 50.9553 4.42594 49.6563 3.49315 48.1067C2.56048 46.5583 2.09408 44.7592 2.09408 42.7095C2.09408 40.7605 2.44393 38.8994 3.14341 37.1249C3.843 35.3516 4.62032 33.6018 5.47537 31.8776C6.33032 30.1536 7.14656 28.4048 7.92388 26.6303C8.7012 24.857 9.16759 22.9947 9.32295 21.0458C8.85655 21.0961 8.37683 21.1465 7.88496 21.1956C7.3919 21.246 6.88659 21.2706 6.36924 21.2706C4.76235 21.2706 3.3378 20.7834 2.09408 19.809C0.850265 18.8343 0.228516 17.5484 0.228516 15.9484C0.228516 14.4995 0.681469 13.5496 1.58888 13.0999C2.49479 12.65 3.57089 12.3631 4.8146 12.2377C6.05831 12.1136 7.34094 11.9508 8.66228 11.7505C9.98372 11.5515 11.0586 11.0009 11.8881 10.1013C12.6132 9.30257 13.235 8.33988 13.7536 7.21544C14.271 6.091 14.8151 5.00399 15.3859 3.95462C15.9556 2.90514 16.6551 2.01855 17.4847 1.2935C18.313 0.569584 19.4012 0.206486 20.7493 0.206486C22.2518 0.206486 23.4566 0.618832 24.3638 1.44332C25.2698 2.26801 25.7241 3.4052 25.7241 4.85417C25.7241 6.00432 25.5553 7.12865 25.2189 8.22738C24.8812 9.32714 24.7136 10.4516 24.7136 11.6006C24.7136 12.5001 25.0113 13.0131 25.6075 13.1374C26.2026 13.2626 26.8767 13.3376 27.6286 13.3623C28.3791 13.388 29.0531 13.5379 29.6496 13.8119C30.2446 14.0872 30.5435 14.7993 30.5435 15.9484C30.5435 17.6479 30.1803 18.8602 29.4552 19.584C28.7289 20.309 27.8739 20.7962 26.8901 21.0458C25.9051 21.2964 24.9334 21.4463 23.9752 21.4956C23.0157 21.5458 22.304 21.7203 21.8375 22.0202C21.2667 22.3704 20.8659 22.9456 20.6328 23.7442C20.3996 24.5444 20.2831 25.2435 20.2831 25.8433Z" fill="#2FA048"/>
</g>
</svg>
