<svg width="64" height="64" viewBox="0 0 64 64" fill="none" xmlns="http://www.w3.org/2000/svg">
<g clip-path="url(#clip0_897_5030)">
<path d="M64 0H0V64H64V0Z" fill="white"/>
<path d="M3.21405 0.710938H0.710938V3.21405H3.21405V0.710938Z" fill="black"/>
<path d="M5.71716 0.710938H3.21405V3.21405H5.71716V0.710938Z" fill="black"/>
<path d="M8.22027 0.710938H5.71716V3.21405H8.22027V0.710938Z" fill="black"/>
<path d="M10.7234 0.710938H8.22027V3.21405H10.7234V0.710938Z" fill="black"/>
<path d="M13.2265 0.710938H10.7234V3.21405H13.2265V0.710938Z" fill="black"/>
<path d="M15.7296 0.710938H13.2265V3.21405H15.7296V0.710938Z" fill="black"/>
<path d="M18.2327 0.710938H15.7296V3.21405H18.2327V0.710938Z" fill="black"/>
<path d="M23.2389 0.710938H20.7358V3.21405H23.2389V0.710938Z" fill="black"/>
<path d="M28.2452 0.710938H25.7421V3.21405H28.2452V0.710938Z" fill="black"/>
<path d="M30.7483 0.710938H28.2452V3.21405H30.7483V0.710938Z" fill="black"/>
<path d="M40.7607 0.710938H38.2576V3.21405H40.7607V0.710938Z" fill="black"/>
<path d="M48.2701 0.710938H45.7669V3.21405H48.2701V0.710938Z" fill="black"/>
<path d="M50.7732 0.710938H48.2701V3.21405H50.7732V0.710938Z" fill="black"/>
<path d="M53.2763 0.710938H50.7732V3.21405H53.2763V0.710938Z" fill="black"/>
<path d="M55.7794 0.710938H53.2763V3.21405H55.7794V0.710938Z" fill="black"/>
<path d="M58.2825 0.710938H55.7794V3.21405H58.2825V0.710938Z" fill="black"/>
<path d="M60.7856 0.710938H58.2825V3.21405H60.7856V0.710938Z" fill="black"/>
<path d="M63.2887 0.710938H60.7856V3.21405H63.2887V0.710938Z" fill="black"/>
<path d="M3.21405 3.21405H0.710938V5.71716H3.21405V3.21405Z" fill="black"/>
<path d="M18.2327 3.21405H15.7296L15.7296 5.71716H18.2327V3.21405Z" fill="black"/>
<path d="M25.7421 3.21405H23.2389V5.71716H25.7421V3.21405Z" fill="black"/>
<path d="M28.2452 3.21405H25.7421V5.71716H28.2452V3.21405Z" fill="black"/>
<path d="M33.2514 3.21405H30.7483V5.71716H33.2514V3.21405Z" fill="black"/>
<path d="M35.7545 3.21405H33.2514V5.71716H35.7545V3.21405Z" fill="black"/>
<path d="M38.2576 3.21405H35.7545V5.71716H38.2576L38.2576 3.21405Z" fill="black"/>
<path d="M48.2701 3.21405H45.7669V5.71716H48.2701V3.21405Z" fill="black"/>
<path d="M63.2887 3.21405H60.7856V5.71716H63.2887V3.21405Z" fill="black"/>
<path d="M3.21405 5.71716H0.710938V8.22027H3.21405V5.71716Z" fill="black"/>
<path d="M8.22027 5.71716H5.71716V8.22027H8.22027V5.71716Z" fill="black"/>
<path d="M10.7234 5.71716H8.22027V8.22027H10.7234V5.71716Z" fill="black"/>
<path d="M13.2265 5.71716H10.7234V8.22027H13.2265V5.71716Z" fill="black"/>
<path d="M18.2327 5.71716H15.7296V8.22027H18.2327V5.71716Z" fill="black"/>
<path d="M23.2389 5.71716H20.7358V8.22027H23.2389V5.71716Z" fill="black"/>
<path d="M25.7421 5.71716H23.2389V8.22027H25.7421V5.71716Z" fill="black"/>
<path d="M28.2452 5.71716H25.7421V8.22027H28.2452V5.71716Z" fill="black"/>
<path d="M33.2514 5.71716H30.7483V8.22027H33.2514V5.71716Z" fill="black"/>
<path d="M35.7545 5.71716H33.2514V8.22027H35.7545V5.71716Z" fill="black"/>
<path d="M38.2576 5.71716H35.7545V8.22027H38.2576V5.71716Z" fill="black"/>
<path d="M40.7607 5.71716H38.2576V8.22027H40.7607V5.71716Z" fill="black"/>
<path d="M48.2701 5.71716H45.7669V8.22027H48.2701V5.71716Z" fill="black"/>
<path d="M53.2763 5.71716H50.7732V8.22027H53.2763V5.71716Z" fill="black"/>
<path d="M55.7794 5.71716H53.2763V8.22027H55.7794V5.71716Z" fill="black"/>
<path d="M58.2825 5.71716H55.7794V8.22027H58.2825V5.71716Z" fill="black"/>
<path d="M63.2887 5.71716H60.7856V8.22027H63.2887V5.71716Z" fill="black"/>
<path d="M3.21405 8.22027H0.710938V10.7234H3.21405V8.22027Z" fill="black"/>
<path d="M8.22027 8.22027H5.71716V10.7234H8.22027V8.22027Z" fill="black"/>
<path d="M10.7234 8.22027H8.22027V10.7234H10.7234V8.22027Z" fill="black"/>
<path d="M13.2265 8.22027H10.7234V10.7234H13.2265V8.22027Z" fill="black"/>
<path d="M18.2327 8.22027H15.7296V10.7234H18.2327V8.22027Z" fill="black"/>
<path d="M23.2389 8.22027H20.7358V10.7234H23.2389V8.22027Z" fill="black"/>
<path d="M25.7421 8.22027H23.2389V10.7234H25.7421V8.22027Z" fill="black"/>
<path d="M30.7483 8.22027H28.2452V10.7234H30.7483V8.22027Z" fill="black"/>
<path d="M43.2638 8.22027H40.7607V10.7234H43.2638V8.22027Z" fill="black"/>
<path d="M48.2701 8.22027H45.7669V10.7234H48.2701V8.22027Z" fill="black"/>
<path d="M53.2763 8.22027H50.7732V10.7234H53.2763V8.22027Z" fill="black"/>
<path d="M55.7794 8.22027H53.2763V10.7234H55.7794V8.22027Z" fill="black"/>
<path d="M58.2825 8.22027H55.7794V10.7234H58.2825V8.22027Z" fill="black"/>
<path d="M63.2887 8.22027H60.7856V10.7234H63.2887V8.22027Z" fill="black"/>
<path d="M3.21405 10.7234H0.710938V13.2265H3.21405V10.7234Z" fill="black"/>
<path d="M8.22027 10.7234H5.71716V13.2265H8.22027V10.7234Z" fill="black"/>
<path d="M10.7234 10.7234H8.22027V13.2265H10.7234V10.7234Z" fill="black"/>
<path d="M13.2265 10.7234H10.7234V13.2265H13.2265V10.7234Z" fill="black"/>
<path d="M18.2327 10.7234H15.7296V13.2265H18.2327V10.7234Z" fill="black"/>
<path d="M28.2452 10.7234H25.7421V13.2265H28.2452V10.7234Z" fill="black"/>
<path d="M30.7483 10.7234H28.2452V13.2265H30.7483V10.7234Z" fill="black"/>
<path d="M33.2514 10.7234H30.7483V13.2265H33.2514V10.7234Z" fill="black"/>
<path d="M35.7545 10.7234H33.2514V13.2265H35.7545V10.7234Z" fill="black"/>
<path d="M48.2701 10.7234H45.7669V13.2265H48.2701V10.7234Z" fill="black"/>
<path d="M53.2763 10.7234H50.7732V13.2265H53.2763V10.7234Z" fill="black"/>
<path d="M55.7794 10.7234H53.2763V13.2265H55.7794V10.7234Z" fill="black"/>
<path d="M58.2825 10.7234H55.7794V13.2265H58.2825V10.7234Z" fill="black"/>
<path d="M63.2887 10.7234H60.7856V13.2265H63.2887V10.7234Z" fill="black"/>
<path d="M3.21405 13.2265H0.710938V15.7296H3.21405V13.2265Z" fill="black"/>
<path d="M18.2327 13.2265H15.7296V15.7296H18.2327V13.2265Z" fill="black"/>
<path d="M23.2389 13.2265H20.7358V15.7296H23.2389V13.2265Z" fill="black"/>
<path d="M28.2452 13.2265H25.7421V15.7296H28.2452V13.2265Z" fill="black"/>
<path d="M35.7545 13.2265H33.2514V15.7296H35.7545V13.2265Z" fill="black"/>
<path d="M38.2576 13.2265H35.7545V15.7296H38.2576V13.2265Z" fill="black"/>
<path d="M40.7607 13.2265H38.2576V15.7296H40.7607V13.2265Z" fill="black"/>
<path d="M43.2638 13.2265H40.7607V15.7296H43.2638V13.2265Z" fill="black"/>
<path d="M48.2701 13.2265H45.7669V15.7296H48.2701V13.2265Z" fill="black"/>
<path d="M63.2887 13.2265H60.7856V15.7296H63.2887V13.2265Z" fill="black"/>
<path d="M3.21405 15.7296H0.710938V18.2327H3.21405V15.7296Z" fill="black"/>
<path d="M5.71716 15.7296L3.21405 15.7296V18.2327H5.71716V15.7296Z" fill="black"/>
<path d="M8.22027 15.7296H5.71716V18.2327H8.22027V15.7296Z" fill="black"/>
<path d="M10.7234 15.7296H8.22027V18.2327H10.7234V15.7296Z" fill="black"/>
<path d="M13.2265 15.7296H10.7234V18.2327H13.2265V15.7296Z" fill="black"/>
<path d="M15.7296 15.7296L13.2265 15.7296V18.2327H15.7296L15.7296 15.7296Z" fill="black"/>
<path d="M18.2327 15.7296H15.7296L15.7296 18.2327H18.2327V15.7296Z" fill="black"/>
<path d="M23.2389 15.7296H20.7358V18.2327H23.2389V15.7296Z" fill="black"/>
<path d="M28.2452 15.7296H25.7421V18.2327H28.2452V15.7296Z" fill="black"/>
<path d="M33.2514 15.7296L30.7483 15.7296V18.2327H33.2514V15.7296Z" fill="black"/>
<path d="M38.2576 15.7296H35.7545V18.2327H38.2576V15.7296Z" fill="black"/>
<path d="M43.2638 15.7296H40.7607V18.2327H43.2638V15.7296Z" fill="black"/>
<path d="M48.2701 15.7296H45.7669V18.2327H48.2701V15.7296Z" fill="black"/>
<path d="M50.7732 15.7296L48.2701 15.7296V18.2327H50.7732V15.7296Z" fill="black"/>
<path d="M53.2763 15.7296H50.7732V18.2327H53.2763V15.7296Z" fill="black"/>
<path d="M55.7794 15.7296H53.2763V18.2327H55.7794V15.7296Z" fill="black"/>
<path d="M58.2825 15.7296H55.7794V18.2327H58.2825V15.7296Z" fill="black"/>
<path d="M60.7856 15.7296L58.2825 15.7296V18.2327H60.7856V15.7296Z" fill="black"/>
<path d="M63.2887 15.7296H60.7856V18.2327H63.2887V15.7296Z" fill="black"/>
<path d="M23.2389 18.2327H20.7358V20.7358H23.2389V18.2327Z" fill="black"/>
<path d="M28.2452 18.2327H25.7421V20.7358H28.2452V18.2327Z" fill="black"/>
<path d="M35.7545 18.2327H33.2514V20.7358H35.7545V18.2327Z" fill="black"/>
<path d="M3.21405 20.7358H0.710938V23.2389H3.21405V20.7358Z" fill="black"/>
<path d="M5.71716 20.7358H3.21405V23.2389H5.71716V20.7358Z" fill="black"/>
<path d="M10.7234 20.7358H8.22027V23.2389H10.7234V20.7358Z" fill="black"/>
<path d="M18.2327 20.7358H15.7296V23.2389H18.2327V20.7358Z" fill="black"/>
<path d="M20.7358 20.7358H18.2327V23.2389H20.7358V20.7358Z" fill="black"/>
<path d="M25.7421 20.7358H23.2389V23.2389H25.7421V20.7358Z" fill="black"/>
<path d="M30.7483 20.7358H28.2452V23.2389H30.7483V20.7358Z" fill="black"/>
<path d="M38.2576 20.7358H35.7545V23.2389H38.2576V20.7358Z" fill="black"/>
<path d="M40.7607 20.7358H38.2576V23.2389H40.7607V20.7358Z" fill="black"/>
<path d="M45.7669 20.7358H43.2638V23.2389H45.7669V20.7358Z" fill="black"/>
<path d="M48.2701 20.7358H45.7669V23.2389H48.2701V20.7358Z" fill="black"/>
<path d="M50.7732 20.7358H48.2701V23.2389H50.7732V20.7358Z" fill="black"/>
<path d="M55.7794 20.7358H53.2763V23.2389H55.7794V20.7358Z" fill="black"/>
<path d="M58.2825 20.7358H55.7794V23.2389H58.2825V20.7358Z" fill="black"/>
<path d="M63.2887 20.7358H60.7856V23.2389H63.2887V20.7358Z" fill="black"/>
<path d="M13.2265 23.2389H10.7234V25.7421H13.2265V23.2389Z" fill="black"/>
<path d="M15.7296 23.2389H13.2265V25.7421H15.7296L15.7296 23.2389Z" fill="black"/>
<path d="M23.2389 23.2389H20.7358V25.7421H23.2389V23.2389Z" fill="black"/>
<path d="M25.7421 23.2389H23.2389V25.7421H25.7421V23.2389Z" fill="black"/>
<path d="M28.2452 23.2389H25.7421V25.7421H28.2452V23.2389Z" fill="black"/>
<path d="M38.2576 23.2389H35.7545V25.7421H38.2576V23.2389Z" fill="black"/>
<path d="M40.7607 23.2389H38.2576V25.7421H40.7607V23.2389Z" fill="black"/>
<path d="M43.2638 23.2389H40.7607V25.7421H43.2638V23.2389Z" fill="black"/>
<path d="M45.7669 23.2389H43.2638V25.7421H45.7669V23.2389Z" fill="black"/>
<path d="M48.2701 23.2389H45.7669V25.7421H48.2701V23.2389Z" fill="black"/>
<path d="M53.2763 23.2389H50.7732V25.7421H53.2763V23.2389Z" fill="black"/>
<path d="M58.2825 23.2389H55.7794V25.7421H58.2825V23.2389Z" fill="black"/>
<path d="M60.7856 23.2389H58.2825V25.7421H60.7856V23.2389Z" fill="black"/>
<path d="M63.2887 23.2389H60.7856V25.7421H63.2887V23.2389Z" fill="black"/>
<path d="M3.21405 25.7421H0.710938V28.2452H3.21405V25.7421Z" fill="black"/>
<path d="M13.2265 25.7421H10.7234V28.2452H13.2265V25.7421Z" fill="black"/>
<path d="M15.7296 25.7421H13.2265V28.2452H15.7296V25.7421Z" fill="black"/>
<path d="M18.2327 25.7421H15.7296V28.2452H18.2327V25.7421Z" fill="black"/>
<path d="M20.7358 25.7421H18.2327V28.2452H20.7358V25.7421Z" fill="black"/>
<path d="M25.7421 25.7421H23.2389V28.2452H25.7421V25.7421Z" fill="black"/>
<path d="M30.7483 25.7421H28.2452V28.2452H30.7483V25.7421Z" fill="black"/>
<path d="M33.2514 25.7421H30.7483V28.2452H33.2514V25.7421Z" fill="black"/>
<path d="M40.7607 25.7421H38.2576L38.2576 28.2452H40.7607V25.7421Z" fill="black"/>
<path d="M45.7669 25.7421H43.2638V28.2452H45.7669V25.7421Z" fill="black"/>
<path d="M60.7856 25.7421H58.2825V28.2452H60.7856V25.7421Z" fill="black"/>
<path d="M5.71716 28.2452H3.21405V30.7483H5.71716V28.2452Z" fill="black"/>
<path d="M8.22027 28.2452H5.71716V30.7483H8.22027V28.2452Z" fill="black"/>
<path d="M13.2265 28.2452H10.7234V30.7483H13.2265V28.2452Z" fill="black"/>
<path d="M15.7296 28.2452H13.2265V30.7483H15.7296V28.2452Z" fill="black"/>
<path d="M20.7358 28.2452H18.2327V30.7483H20.7358V28.2452Z" fill="black"/>
<path d="M23.2389 28.2452H20.7358V30.7483H23.2389V28.2452Z" fill="black"/>
<path d="M25.7421 28.2452H23.2389V30.7483H25.7421V28.2452Z" fill="black"/>
<path d="M28.2452 28.2452H25.7421V30.7483H28.2452V28.2452Z" fill="black"/>
<path d="M35.7545 28.2452H33.2514V30.7483H35.7545V28.2452Z" fill="black"/>
<path d="M43.2638 28.2452H40.7607V30.7483H43.2638V28.2452Z" fill="black"/>
<path d="M48.2701 28.2452H45.7669V30.7483H48.2701V28.2452Z" fill="black"/>
<path d="M53.2763 28.2452H50.7732V30.7483H53.2763V28.2452Z" fill="black"/>
<path d="M58.2825 28.2452H55.7794V30.7483H58.2825V28.2452Z" fill="black"/>
<path d="M5.71716 30.7483H3.21405V33.2514H5.71716V30.7483Z" fill="black"/>
<path d="M8.22027 30.7483H5.71716V33.2514H8.22027V30.7483Z" fill="black"/>
<path d="M10.7234 30.7483H8.22027V33.2514H10.7234V30.7483Z" fill="black"/>
<path d="M15.7296 30.7483H13.2265V33.2514H15.7296V30.7483Z" fill="black"/>
<path d="M18.2327 30.7483H15.7296V33.2514H18.2327V30.7483Z" fill="black"/>
<path d="M20.7358 30.7483H18.2327V33.2514H20.7358V30.7483Z" fill="black"/>
<path d="M28.2452 30.7483H25.7421V33.2514H28.2452V30.7483Z" fill="black"/>
<path d="M38.2576 30.7483H35.7545V33.2514H38.2576V30.7483Z" fill="black"/>
<path d="M40.7607 30.7483H38.2576V33.2514H40.7607V30.7483Z" fill="black"/>
<path d="M45.7669 30.7483H43.2638V33.2514H45.7669V30.7483Z" fill="black"/>
<path d="M48.2701 30.7483H45.7669V33.2514H48.2701V30.7483Z" fill="black"/>
<path d="M50.7732 30.7483H48.2701V33.2514H50.7732V30.7483Z" fill="black"/>
<path d="M53.2763 30.7483H50.7732V33.2514H53.2763V30.7483Z" fill="black"/>
<path d="M55.7794 30.7483H53.2763V33.2514H55.7794V30.7483Z" fill="black"/>
<path d="M58.2825 30.7483H55.7794V33.2514H58.2825V30.7483Z" fill="black"/>
<path d="M63.2887 30.7483H60.7856V33.2514H63.2887V30.7483Z" fill="black"/>
<path d="M8.22027 33.2514H5.71716V35.7545H8.22027V33.2514Z" fill="black"/>
<path d="M13.2265 33.2514H10.7234V35.7545H13.2265V33.2514Z" fill="black"/>
<path d="M20.7358 33.2514H18.2327V35.7545H20.7358V33.2514Z" fill="black"/>
<path d="M23.2389 33.2514H20.7358V35.7545H23.2389V33.2514Z" fill="black"/>
<path d="M30.7483 33.2514H28.2452V35.7545H30.7483V33.2514Z" fill="black"/>
<path d="M35.7545 33.2514H33.2514V35.7545H35.7545V33.2514Z" fill="black"/>
<path d="M40.7607 33.2514H38.2576L38.2576 35.7545H40.7607V33.2514Z" fill="black"/>
<path d="M45.7669 33.2514H43.2638V35.7545H45.7669V33.2514Z" fill="black"/>
<path d="M53.2763 33.2514H50.7732V35.7545H53.2763V33.2514Z" fill="black"/>
<path d="M55.7794 33.2514H53.2763V35.7545H55.7794V33.2514Z" fill="black"/>
<path d="M58.2825 33.2514H55.7794V35.7545H58.2825V33.2514Z" fill="black"/>
<path d="M5.71716 35.7545H3.21405V38.2576H5.71716V35.7545Z" fill="black"/>
<path d="M8.22027 35.7545H5.71716V38.2576H8.22027V35.7545Z" fill="black"/>
<path d="M15.7296 35.7545H13.2265V38.2576H15.7296V35.7545Z" fill="black"/>
<path d="M18.2327 35.7545H15.7296V38.2576H18.2327V35.7545Z" fill="black"/>
<path d="M20.7358 35.7545H18.2327V38.2576H20.7358V35.7545Z" fill="black"/>
<path d="M23.2389 35.7545H20.7358V38.2576H23.2389V35.7545Z" fill="black"/>
<path d="M28.2452 35.7545H25.7421V38.2576H28.2452V35.7545Z" fill="black"/>
<path d="M30.7483 35.7545H28.2452V38.2576H30.7483V35.7545Z" fill="black"/>
<path d="M38.2576 35.7545H35.7545V38.2576H38.2576L38.2576 35.7545Z" fill="black"/>
<path d="M55.7794 35.7545H53.2763V38.2576H55.7794V35.7545Z" fill="black"/>
<path d="M63.2887 35.7545H60.7856V38.2576H63.2887V35.7545Z" fill="black"/>
<path d="M3.21405 38.2576L0.710938 38.2576V40.7607H3.21405V38.2576Z" fill="black"/>
<path d="M5.71716 38.2576H3.21405V40.7607H5.71716V38.2576Z" fill="black"/>
<path d="M8.22027 38.2576H5.71716V40.7607H8.22027V38.2576Z" fill="black"/>
<path d="M25.7421 38.2576H23.2389V40.7607H25.7421V38.2576Z" fill="black"/>
<path d="M28.2452 38.2576H25.7421V40.7607H28.2452V38.2576Z" fill="black"/>
<path d="M30.7483 38.2576H28.2452V40.7607H30.7483V38.2576Z" fill="black"/>
<path d="M43.2638 38.2576H40.7607V40.7607H43.2638V38.2576Z" fill="black"/>
<path d="M45.7669 38.2576H43.2638V40.7607H45.7669V38.2576Z" fill="black"/>
<path d="M48.2701 38.2576H45.7669V40.7607H48.2701V38.2576Z" fill="black"/>
<path d="M50.7732 38.2576H48.2701V40.7607H50.7732V38.2576Z" fill="black"/>
<path d="M55.7794 38.2576H53.2763V40.7607H55.7794V38.2576Z" fill="black"/>
<path d="M58.2825 38.2576L55.7794 38.2576V40.7607H58.2825V38.2576Z" fill="black"/>
<path d="M60.7856 38.2576L58.2825 38.2576V40.7607H60.7856V38.2576Z" fill="black"/>
<path d="M3.21405 40.7607H0.710938V43.2638H3.21405V40.7607Z" fill="black"/>
<path d="M10.7234 40.7607H8.22027V43.2638H10.7234V40.7607Z" fill="black"/>
<path d="M18.2327 40.7607H15.7296V43.2638H18.2327V40.7607Z" fill="black"/>
<path d="M23.2389 40.7607H20.7358V43.2638H23.2389V40.7607Z" fill="black"/>
<path d="M25.7421 40.7607H23.2389V43.2638H25.7421V40.7607Z" fill="black"/>
<path d="M38.2576 40.7607H35.7545V43.2638H38.2576V40.7607Z" fill="black"/>
<path d="M43.2638 40.7607H40.7607V43.2638H43.2638V40.7607Z" fill="black"/>
<path d="M45.7669 40.7607H43.2638V43.2638H45.7669V40.7607Z" fill="black"/>
<path d="M48.2701 40.7607H45.7669V43.2638H48.2701V40.7607Z" fill="black"/>
<path d="M50.7732 40.7607H48.2701V43.2638H50.7732V40.7607Z" fill="black"/>
<path d="M53.2763 40.7607H50.7732V43.2638H53.2763V40.7607Z" fill="black"/>
<path d="M60.7856 40.7607H58.2825V43.2638H60.7856V40.7607Z" fill="black"/>
<path d="M28.2452 43.2638H25.7421V45.7669H28.2452V43.2638Z" fill="black"/>
<path d="M30.7483 43.2638H28.2452V45.7669H30.7483V43.2638Z" fill="black"/>
<path d="M33.2514 43.2638H30.7483V45.7669H33.2514V43.2638Z" fill="black"/>
<path d="M35.7545 43.2638H33.2514V45.7669H35.7545V43.2638Z" fill="black"/>
<path d="M38.2576 43.2638H35.7545V45.7669H38.2576V43.2638Z" fill="black"/>
<path d="M40.7607 43.2638H38.2576V45.7669H40.7607V43.2638Z" fill="black"/>
<path d="M43.2638 43.2638H40.7607V45.7669H43.2638V43.2638Z" fill="black"/>
<path d="M53.2763 43.2638H50.7732V45.7669H53.2763V43.2638Z" fill="black"/>
<path d="M58.2825 43.2638H55.7794V45.7669H58.2825V43.2638Z" fill="black"/>
<path d="M60.7856 43.2638H58.2825V45.7669H60.7856V43.2638Z" fill="black"/>
<path d="M3.21405 45.7669H0.710938V48.2701H3.21405V45.7669Z" fill="black"/>
<path d="M5.71716 45.7669H3.21405V48.2701H5.71716V45.7669Z" fill="black"/>
<path d="M8.22027 45.7669H5.71716V48.2701H8.22027V45.7669Z" fill="black"/>
<path d="M10.7234 45.7669H8.22027V48.2701H10.7234V45.7669Z" fill="black"/>
<path d="M13.2265 45.7669H10.7234V48.2701H13.2265V45.7669Z" fill="black"/>
<path d="M15.7296 45.7669H13.2265V48.2701H15.7296V45.7669Z" fill="black"/>
<path d="M18.2327 45.7669H15.7296V48.2701H18.2327V45.7669Z" fill="black"/>
<path d="M23.2389 45.7669H20.7358V48.2701H23.2389V45.7669Z" fill="black"/>
<path d="M25.7421 45.7669H23.2389V48.2701H25.7421V45.7669Z" fill="black"/>
<path d="M30.7483 45.7669H28.2452V48.2701H30.7483V45.7669Z" fill="black"/>
<path d="M33.2514 45.7669H30.7483V48.2701H33.2514V45.7669Z" fill="black"/>
<path d="M38.2576 45.7669H35.7545V48.2701H38.2576V45.7669Z" fill="black"/>
<path d="M43.2638 45.7669H40.7607V48.2701H43.2638V45.7669Z" fill="black"/>
<path d="M48.2701 45.7669H45.7669V48.2701H48.2701V45.7669Z" fill="black"/>
<path d="M53.2763 45.7669H50.7732V48.2701H53.2763V45.7669Z" fill="black"/>
<path d="M55.7794 45.7669H53.2763V48.2701H55.7794V45.7669Z" fill="black"/>
<path d="M58.2825 45.7669H55.7794V48.2701H58.2825V45.7669Z" fill="black"/>
<path d="M60.7856 45.7669H58.2825V48.2701H60.7856V45.7669Z" fill="black"/>
<path d="M3.21405 48.2701H0.710938V50.7732H3.21405V48.2701Z" fill="black"/>
<path d="M18.2327 48.2701H15.7296L15.7296 50.7732H18.2327V48.2701Z" fill="black"/>
<path d="M25.7421 48.2701H23.2389V50.7732H25.7421V48.2701Z" fill="black"/>
<path d="M43.2638 48.2701H40.7607V50.7732H43.2638V48.2701Z" fill="black"/>
<path d="M53.2763 48.2701H50.7732V50.7732H53.2763V48.2701Z" fill="black"/>
<path d="M58.2825 48.2701H55.7794V50.7732H58.2825V48.2701Z" fill="black"/>
<path d="M3.21405 50.7732H0.710938V53.2763H3.21405V50.7732Z" fill="black"/>
<path d="M8.22027 50.7732H5.71716V53.2763H8.22027V50.7732Z" fill="black"/>
<path d="M10.7234 50.7732H8.22027V53.2763H10.7234V50.7732Z" fill="black"/>
<path d="M13.2265 50.7732H10.7234V53.2763H13.2265V50.7732Z" fill="black"/>
<path d="M18.2327 50.7732H15.7296V53.2763H18.2327V50.7732Z" fill="black"/>
<path d="M30.7483 50.7732H28.2452V53.2763H30.7483V50.7732Z" fill="black"/>
<path d="M33.2514 50.7732H30.7483V53.2763H33.2514V50.7732Z" fill="black"/>
<path d="M35.7545 50.7732H33.2514V53.2763H35.7545V50.7732Z" fill="black"/>
<path d="M43.2638 50.7732H40.7607V53.2763H43.2638V50.7732Z" fill="black"/>
<path d="M45.7669 50.7732H43.2638V53.2763H45.7669V50.7732Z" fill="black"/>
<path d="M48.2701 50.7732H45.7669V53.2763H48.2701V50.7732Z" fill="black"/>
<path d="M50.7732 50.7732H48.2701V53.2763H50.7732V50.7732Z" fill="black"/>
<path d="M53.2763 50.7732H50.7732V53.2763H53.2763V50.7732Z" fill="black"/>
<path d="M58.2825 50.7732H55.7794V53.2763H58.2825V50.7732Z" fill="black"/>
<path d="M60.7856 50.7732H58.2825V53.2763H60.7856V50.7732Z" fill="black"/>
<path d="M63.2887 50.7732H60.7856V53.2763H63.2887V50.7732Z" fill="black"/>
<path d="M3.21405 53.2763H0.710938V55.7794H3.21405V53.2763Z" fill="black"/>
<path d="M8.22027 53.2763H5.71716V55.7794H8.22027V53.2763Z" fill="black"/>
<path d="M10.7234 53.2763H8.22027V55.7794H10.7234V53.2763Z" fill="black"/>
<path d="M13.2265 53.2763H10.7234V55.7794H13.2265V53.2763Z" fill="black"/>
<path d="M18.2327 53.2763H15.7296V55.7794H18.2327V53.2763Z" fill="black"/>
<path d="M23.2389 53.2763H20.7358V55.7794H23.2389V53.2763Z" fill="black"/>
<path d="M25.7421 53.2763H23.2389V55.7794H25.7421V53.2763Z" fill="black"/>
<path d="M28.2452 53.2763H25.7421V55.7794H28.2452V53.2763Z" fill="black"/>
<path d="M30.7483 53.2763H28.2452V55.7794H30.7483V53.2763Z" fill="black"/>
<path d="M33.2514 53.2763H30.7483V55.7794H33.2514V53.2763Z" fill="black"/>
<path d="M35.7545 53.2763H33.2514V55.7794H35.7545V53.2763Z" fill="black"/>
<path d="M38.2576 53.2763H35.7545V55.7794H38.2576V53.2763Z" fill="black"/>
<path d="M43.2638 53.2763H40.7607V55.7794H43.2638V53.2763Z" fill="black"/>
<path d="M45.7669 53.2763H43.2638V55.7794H45.7669V53.2763Z" fill="black"/>
<path d="M48.2701 53.2763H45.7669V55.7794H48.2701V53.2763Z" fill="black"/>
<path d="M50.7732 53.2763H48.2701V55.7794H50.7732V53.2763Z" fill="black"/>
<path d="M55.7794 53.2763H53.2763V55.7794H55.7794V53.2763Z" fill="black"/>
<path d="M58.2825 53.2763H55.7794V55.7794H58.2825V53.2763Z" fill="black"/>
<path d="M60.7856 53.2763H58.2825V55.7794H60.7856V53.2763Z" fill="black"/>
<path d="M63.2887 53.2763H60.7856V55.7794H63.2887V53.2763Z" fill="black"/>
<path d="M3.21405 55.7794H0.710938V58.2825H3.21405V55.7794Z" fill="black"/>
<path d="M8.22027 55.7794H5.71716V58.2825H8.22027V55.7794Z" fill="black"/>
<path d="M10.7234 55.7794H8.22027V58.2825H10.7234V55.7794Z" fill="black"/>
<path d="M13.2265 55.7794H10.7234V58.2825H13.2265V55.7794Z" fill="black"/>
<path d="M18.2327 55.7794H15.7296V58.2825H18.2327V55.7794Z" fill="black"/>
<path d="M25.7421 55.7794H23.2389V58.2825H25.7421V55.7794Z" fill="black"/>
<path d="M28.2452 55.7794H25.7421V58.2825H28.2452V55.7794Z" fill="black"/>
<path d="M30.7483 55.7794H28.2452V58.2825H30.7483V55.7794Z" fill="black"/>
<path d="M38.2576 55.7794H35.7545V58.2825H38.2576V55.7794Z" fill="black"/>
<path d="M45.7669 55.7794H43.2638V58.2825H45.7669V55.7794Z" fill="black"/>
<path d="M53.2763 55.7794H50.7732V58.2825H53.2763V55.7794Z" fill="black"/>
<path d="M55.7794 55.7794H53.2763V58.2825H55.7794V55.7794Z" fill="black"/>
<path d="M60.7856 55.7794H58.2825V58.2825H60.7856V55.7794Z" fill="black"/>
<path d="M3.21405 58.2825H0.710938V60.7856H3.21405V58.2825Z" fill="black"/>
<path d="M18.2327 58.2825H15.7296V60.7856H18.2327V58.2825Z" fill="black"/>
<path d="M23.2389 58.2825H20.7358V60.7856H23.2389V58.2825Z" fill="black"/>
<path d="M30.7483 58.2825H28.2452V60.7856H30.7483V58.2825Z" fill="black"/>
<path d="M35.7545 58.2825H33.2514V60.7856H35.7545V58.2825Z" fill="black"/>
<path d="M38.2576 58.2825H35.7545V60.7856H38.2576V58.2825Z" fill="black"/>
<path d="M45.7669 58.2825H43.2638V60.7856H45.7669V58.2825Z" fill="black"/>
<path d="M48.2701 58.2825H45.7669V60.7856H48.2701V58.2825Z" fill="black"/>
<path d="M50.7732 58.2825H48.2701V60.7856H50.7732V58.2825Z" fill="black"/>
<path d="M53.2763 58.2825H50.7732V60.7856H53.2763V58.2825Z" fill="black"/>
<path d="M58.2825 58.2825H55.7794V60.7856H58.2825V58.2825Z" fill="black"/>
<path d="M63.2887 58.2825H60.7856V60.7856H63.2887V58.2825Z" fill="black"/>
<path d="M3.21405 60.7856H0.710938V63.2887H3.21405V60.7856Z" fill="black"/>
<path d="M5.71716 60.7856H3.21405V63.2887H5.71716V60.7856Z" fill="black"/>
<path d="M8.22027 60.7856H5.71716V63.2887H8.22027V60.7856Z" fill="black"/>
<path d="M10.7234 60.7856H8.22027V63.2887H10.7234V60.7856Z" fill="black"/>
<path d="M13.2265 60.7856H10.7234V63.2887H13.2265V60.7856Z" fill="black"/>
<path d="M15.7296 60.7856H13.2265V63.2887H15.7296L15.7296 60.7856Z" fill="black"/>
<path d="M18.2327 60.7856H15.7296L15.7296 63.2887H18.2327V60.7856Z" fill="black"/>
<path d="M23.2389 60.7856H20.7358V63.2887H23.2389V60.7856Z" fill="black"/>
<path d="M25.7421 60.7856H23.2389V63.2887H25.7421V60.7856Z" fill="black"/>
<path d="M40.7607 60.7856H38.2576L38.2576 63.2887H40.7607V60.7856Z" fill="black"/>
<path d="M48.2701 60.7856H45.7669V63.2887H48.2701V60.7856Z" fill="black"/>
<path d="M50.7732 60.7856H48.2701V63.2887H50.7732V60.7856Z" fill="black"/>
<path d="M53.2763 60.7856H50.7732V63.2887H53.2763V60.7856Z" fill="black"/>
<path d="M55.7794 60.7856H53.2763V63.2887H55.7794V60.7856Z" fill="black"/>
<path d="M63.2887 60.7856H60.7856V63.2887H63.2887V60.7856Z" fill="black"/>
</g>
<defs>
<clipPath id="clip0_897_5030">
<rect width="64" height="64" fill="white"/>
</clipPath>
</defs>
</svg>
