<!-- <svg width="112" height="24" viewBox="0 0 112 24" fill="none" xmlns="http://www.w3.org/2000/svg">
<line y1="11.5" x2="32" y2="11.5" stroke="#2FA048" stroke-dasharray="2 2"/>
<line x1="80" y1="11.5" x2="112" y2="11.5" stroke="#2FA048" stroke-dasharray="2 2"/>
<path d="M60.9 22H51.1C49.4 22 48 20.61 48 18.9V5.10001C48 3.40001 49.39 2 51.1 2H60.9C62.6 2 64 3.39001 64 5.10001V18.9C64 20.61 62.61 22 60.9 22Z" stroke="#2FA048" stroke-linecap="round" stroke-linejoin="round"/>
<path d="M62.5 13H49.5C48.67 13 48 12.33 48 11.5V9.5C48 8.67 48.67 8 49.5 8H62.5C63.33 8 64 8.67 64 9.5V11.5C64 12.33 63.33 13 62.5 13Z" stroke="#2FA048" stroke-linecap="round" stroke-linejoin="round"/>
<path d="M52.4945 17.7002H52.5035" stroke="#2FA048" stroke-linecap="round" stroke-linejoin="round"/>
<path d="M59.4945 17.7002H59.5035" stroke="#2FA048" stroke-linecap="round" stroke-linejoin="round"/>
<path d="M53.5 5H58.5" stroke="#2FA048" stroke-linecap="round" stroke-linejoin="round"/>
</svg> -->
<svg width="64" height="24" viewBox="0 0 64 24" fill="none" xmlns="http://www.w3.org/2000/svg">
<line x1="48" y1="11.75" x2="64" y2="11.75" stroke="#484848" stroke-width="0.5" stroke-dasharray="1 1"/>
<line y1="11.75" x2="16" y2="11.75" stroke="#484848" stroke-width="0.5" stroke-dasharray="1 1"/>
<path d="M36.9 22H27.1C25.4 22 24 20.61 24 18.9V5.10001C24 3.40001 25.39 2 27.1 2H36.9C38.6 2 40 3.39001 40 5.10001V18.9C40 20.61 38.61 22 36.9 22Z" stroke="#2FA048" stroke-linecap="round" stroke-linejoin="round"/>
<path d="M38.5 13H25.5C24.67 13 24 12.33 24 11.5V9.5C24 8.67 24.67 8 25.5 8H38.5C39.33 8 40 8.67 40 9.5V11.5C40 12.33 39.33 13 38.5 13Z" stroke="#2FA048" stroke-linecap="round" stroke-linejoin="round"/>
<path d="M28.4945 17.6992H28.5035" stroke="#2FA048" stroke-linecap="round" stroke-linejoin="round"/>
<path d="M35.4945 17.6992H35.5035" stroke="#2FA048" stroke-linecap="round" stroke-linejoin="round"/>
<path d="M29.5 5H34.5" stroke="#2FA048" stroke-linecap="round" stroke-linejoin="round"/>
</svg>

