<svg width="26" height="27" viewBox="0 0 26 27" fill="none" xmlns="http://www.w3.org/2000/svg">
<g clip-path="url(#clip0_330_4509)">
<path d="M13.2518 3.2998H18.3518C19.5518 3.2998 20.1518 3.5998 20.6018 3.7498C21.2018 4.0498 21.6518 4.1998 22.1018 4.6498C22.5518 5.0998 22.8518 5.5498 23.0018 6.1498C23.1518 6.5998 23.3018 7.1998 23.4518 8.39981V18.5998C23.4518 19.7998 23.1518 20.3998 23.0018 20.8498C22.7018 21.4498 22.5518 21.8998 22.1018 22.3498C21.6518 22.7998 21.2018 23.0998 20.6018 23.2498C20.1518 23.3998 19.5518 23.5498 18.3518 23.6998H8.15176C6.95176 23.6998 6.35176 23.3998 5.90176 23.2498C5.30176 22.9498 4.85176 22.7998 4.40176 22.3498C3.95176 21.8998 3.65176 21.4498 3.50176 20.8498C3.35176 20.3998 3.20176 19.7998 3.05176 18.5998V8.39981C3.05176 7.1998 3.35176 6.5998 3.50176 6.1498C3.80176 5.5498 3.95176 5.0998 4.40176 4.6498C4.85176 4.1998 5.30176 3.8998 5.90176 3.7498C6.35176 3.5998 6.95176 3.4498 8.15176 3.2998H13.2518ZM13.2518 1.0498H8.15176C6.80176 1.0498 5.90176 1.3498 5.15176 1.6498C4.40176 1.9498 3.65176 2.3998 2.90176 3.1498C2.15176 3.8998 1.85176 4.4998 1.40176 5.3998C1.10176 6.1498 0.951758 7.0498 0.801758 8.39981V18.5998C0.801758 19.9498 1.10176 20.8498 1.40176 21.5998C1.70176 22.3498 2.15176 23.0998 2.90176 23.8498C3.65176 24.5998 4.25176 24.8998 5.15176 25.3498C5.90176 25.6498 6.80176 25.7998 8.15176 25.9498H18.3518C19.7018 25.9498 20.6018 25.6498 21.3518 25.3498C22.1018 25.0498 22.8518 24.5998 23.6018 23.8498C24.3518 23.0998 24.6518 22.4998 25.1018 21.5998C25.4018 20.8498 25.5518 19.9498 25.7018 18.5998V8.39981C25.7018 7.0498 25.4018 6.1498 25.1018 5.3998C24.8018 4.6498 24.3518 3.8998 23.6018 3.1498C22.8518 2.3998 22.2518 2.0998 21.3518 1.6498C20.6018 1.3498 19.7018 1.1998 18.3518 1.0498H13.2518Z" fill="#2FA048"/>
<path d="M13.2518 7.05039C9.65176 7.05039 6.80176 9.90039 6.80176 13.5004C6.80176 17.1004 9.65176 19.9504 13.2518 19.9504C16.8518 19.9504 19.7018 17.1004 19.7018 13.5004C19.7018 9.90039 16.8518 7.05039 13.2518 7.05039ZM13.2518 17.7004C11.0018 17.7004 9.05176 15.9004 9.05176 13.5004C9.05176 11.2504 10.8518 9.30039 13.2518 9.30039C15.5018 9.30039 17.4518 11.1004 17.4518 13.5004C17.4518 15.7504 15.5018 17.7004 13.2518 17.7004ZM19.8518 8.40039C20.2496 8.40039 20.6311 8.24236 20.9124 7.96105C21.1937 7.67975 21.3518 7.29822 21.3518 6.90039C21.3518 6.50257 21.1937 6.12104 20.9124 5.83973C20.6311 5.55843 20.2496 5.40039 19.8518 5.40039C19.4539 5.40039 19.0724 5.55843 18.7911 5.83973C18.5098 6.12104 18.3518 6.50257 18.3518 6.90039C18.3518 7.29822 18.5098 7.67975 18.7911 7.96105C19.0724 8.24236 19.4539 8.40039 19.8518 8.40039Z" fill="#2FA048"/>
</g>
<defs>
<clipPath id="clip0_330_4509">
<rect width="25.5" height="27" fill="white" transform="translate(0.5)"/>
</clipPath>
</defs>
</svg>
